<?xml version="1.0" encoding="UTF-8"?>
<svg version="1.1" xmlns="http://www.w3.org/2000/svg" width="1427" height="749">
<path d="M0 0 C470.91 0 941.82 0 1427 0 C1427 247.17 1427 494.34 1427 749 C956.09 749 485.18 749 0 749 C0 501.83 0 254.66 0 0 Z " fill="#FEFEFE" transform="translate(0,0)"/>
<path d="M0 0 C1.29561356 -0.00137466 2.59122711 -0.00274933 3.92610168 -0.00416565 C5.3494265 -0.00062717 6.77275109 0.00300762 8.19607544 0.00672913 C9.70433043 0.00701139 11.21258555 0.0068525 12.72084045 0.00628662 C16.80507774 0.00600018 20.88928554 0.01187218 24.97351599 0.01886058 C29.24562778 0.02511959 33.51774028 0.02569993 37.78985596 0.02688599 C45.87512798 0.02999179 53.96038645 0.03819506 62.04565251 0.04823548 C72.9745172 0.06151199 83.9033856 0.06690259 94.83225632 0.07273769 C112.0448481 0.08213545 129.25741129 0.10205939 146.47000122 0.12025452 C146.47000122 22.56025452 146.47000122 45.00025452 146.47000122 68.12025452 C136.14203247 68.16923889 125.81406372 68.21822327 115.17312622 68.26869202 C108.61973256 68.30408855 102.0663476 68.33997504 95.51296997 68.37806702 C85.11731982 68.43840173 74.72168597 68.49676906 64.32595825 68.54212952 C56.75353578 68.57518006 49.18118489 68.61508236 41.60884166 68.66304457 C37.60328817 68.68818039 33.59778136 68.70999899 29.59217072 68.72359848 C25.81319778 68.73653714 22.03438603 68.7587154 18.2555027 68.78763771 C16.22534437 68.80086922 14.19513095 68.80461201 12.16493225 68.80795288 C1.39661115 68.90516863 -8.95482629 69.54550401 -18.59249878 74.68275452 C-19.267323 75.03354065 -19.94214722 75.38432678 -20.63742065 75.7457428 C-35.30697352 83.64231705 -48.06557189 96.99864529 -53.34249878 113.05775452 C-54.74515526 118.40435098 -55.29428587 123.60719157 -55.52999878 129.12025452 C-55.57318237 129.79733459 -55.61636597 130.47441467 -55.66085815 131.17201233 C-56.68632473 148.19624375 -53.12545343 163.41621607 -42.52999878 177.12025452 C-41.88546753 177.96845764 -41.24093628 178.81666077 -40.57687378 179.69056702 C-32.56148545 189.39809288 -21.51184395 196.32305235 -9.52999878 200.12025452 C-8.56005478 200.4592276 -7.59011078 200.79820068 -6.59077454 201.14744568 C-1.51695436 202.57990314 3.58490908 202.42833092 8.82131958 202.43910217 C9.94400238 202.4491478 11.06668518 202.45919342 12.22338867 202.46954346 C15.9188691 202.50033163 19.61427721 202.51739873 23.30984497 202.53431702 C25.87817505 202.55303214 28.44649901 202.57260581 31.01481628 202.59300232 C37.07422893 202.63905598 43.13363805 202.67647721 49.19313294 202.70967519 C56.09527684 202.74797457 62.99732767 202.79736409 69.89939296 202.84765935 C84.08953147 202.95081559 98.27972271 203.03866498 112.47000122 203.12025452 C112.47000122 192.23025452 112.47000122 181.34025452 112.47000122 170.12025452 C78.81000122 170.12025452 45.15000122 170.12025452 10.47000122 170.12025452 C10.47000122 147.35025452 10.47000122 124.58025452 10.47000122 101.12025452 C66.57000122 101.12025452 122.67000122 101.12025452 180.47000122 101.12025452 C180.47000122 157.22025452 180.47000122 213.32025452 180.47000122 271.12025452 C134.96339747 271.28146665 134.96339747 271.28146665 115.78250122 271.31556702 C102.57833589 271.33923139 89.37427322 271.36693509 76.17019653 271.42201233 C66.55047843 271.46211896 56.93084422 271.48774347 47.31104481 271.4966085 C42.22636014 271.50178326 37.14191532 271.5137805 32.0573082 271.54317474 C-9.29938292 271.77292413 -9.29938292 271.77292413 -26.52999878 267.12025452 C-27.57994963 266.84269695 -27.57994963 266.84269695 -28.6511116 266.55953217 C-50.5438993 260.65525461 -73.20591733 246.83688158 -87.52999878 229.12025452 C-88.3163269 228.33521545 -89.10265503 227.55017639 -89.91281128 226.74134827 C-102.89724035 213.73753945 -112.34054862 197.44286229 -118.09249878 180.05775452 C-118.38318237 179.2179303 -118.67386597 178.37810608 -118.97335815 177.51283264 C-123.35792641 164.37874562 -125.06144785 151.69285114 -124.90499878 137.93275452 C-124.90101074 137.21713348 -124.89702271 136.50151245 -124.89291382 135.76420593 C-124.78778034 119.61745618 -123.43687584 104.27267827 -117.52999878 89.12025452 C-117.19484253 88.12509827 -116.85968628 87.12994202 -116.51437378 86.10462952 C-111.56032132 71.940226 -103.5094274 59.26589349 -93.52999878 48.12025452 C-92.23255737 46.62558655 -92.23255737 46.62558655 -90.90890503 45.10072327 C-70.14777019 21.49147711 -43.20754078 6.80701653 -12.52999878 1.12025452 C-11.63178846 0.94978387 -10.73357815 0.77931322 -9.80814934 0.6036768 C-6.48357148 0.11340798 -3.35908678 -0.00275787 0 0 Z " fill="#020202" transform="translate(180.52999877929688,238.87974548339844)"/>
<path d="M0 0 C1.42254341 -0.01429802 1.42254341 -0.01429802 2.87382507 -0.02888489 C4.39578239 -0.02751778 4.39578239 -0.02751778 5.94848633 -0.02612305 C7.00530106 -0.03040817 8.06211578 -0.0346933 9.1509552 -0.03910828 C11.38594854 -0.04484502 13.62096055 -0.04535667 15.85595703 -0.04101562 C19.25106297 -0.03786909 22.64528577 -0.06127709 26.0402832 -0.08666992 C28.21801649 -0.08894452 30.3957521 -0.08964567 32.57348633 -0.08862305 C33.57800339 -0.09783279 34.58252045 -0.10704254 35.61747742 -0.11653137 C47.33958767 -0.04079979 55.62650529 3.58259185 65.09301758 10.2746582 C66.03274414 10.91532227 66.9724707 11.55598633 67.94067383 12.21606445 C75.58701812 17.7312986 82.22910741 24.12849489 88.90551758 30.7746582 C89.78900879 31.6526709 90.6725 32.53068359 91.58276367 33.43530273 C96.49996175 38.40622044 101.03816392 43.51646282 105.33935547 49.02856445 C107.61132075 51.93850189 109.99894011 54.72509374 112.40551758 57.5246582 C116.65384876 62.50214189 120.73286264 67.5879715 124.74975586 72.75317383 C128.51388037 77.57699712 132.38158634 82.30934612 136.28051758 87.0246582 C143.56251746 95.83340331 150.68841475 104.75300842 157.74169922 113.74536133 C166.07104022 124.35336286 174.52843669 134.85572769 183.09301758 145.2746582 C186.0966778 148.93834059 189.09555053 152.60590771 192.09301758 156.2746582 C192.58850098 156.87971191 193.08398438 157.48476563 193.59448242 158.1081543 C199.42991155 165.23679268 205.24388029 172.38174384 210.90551758 179.6496582 C211.71633789 180.68864258 212.5271582 181.72762695 213.36254883 182.7980957 C215.09301758 185.2746582 215.09301758 185.2746582 215.09301758 187.2746582 C215.75301758 187.2746582 216.41301758 187.2746582 217.09301758 187.2746582 C217.09301758 125.5646582 217.09301758 63.8546582 217.09301758 0.2746582 C239.20301758 0.2746582 261.31301758 0.2746582 284.09301758 0.2746582 C284.15915787 32.64100486 284.21454885 65.00728592 284.24621357 97.37367982 C284.24996567 101.19508354 284.25384864 105.01648712 284.2578125 108.83789062 C284.25859943 109.59866122 284.25938636 110.35943181 284.26019714 111.14325606 C284.27325 123.46051558 284.29690319 135.77773308 284.32447597 148.09496767 C284.35253349 160.73418755 284.36919457 173.37338543 284.37528306 186.01263517 C284.37939879 193.81133534 284.39239661 201.60991674 284.41676698 209.40858036 C284.43450389 215.38925661 284.43638232 221.36983076 284.43234062 227.35053635 C284.43316667 229.80352828 284.4391435 232.25652466 284.450634 234.70948982 C284.46554793 238.05718921 284.46197478 241.40437942 284.45378113 244.75209045 C284.46251965 245.72389238 284.47125818 246.6956943 284.4802615 247.69694477 C284.43815955 254.05615973 283.7296492 259.11592131 279.51489258 264.1652832 C278.96317383 264.61387695 278.41145508 265.0624707 277.84301758 265.5246582 C277.30161133 265.98356445 276.76020508 266.4424707 276.20239258 266.9152832 C269.56033346 271.1957213 264.05223349 271.7315022 256.29614258 271.70825195 C255.26672546 271.7134938 254.23730835 271.71873566 253.17669678 271.72413635 C251.00493264 271.73053937 248.83313374 271.72924193 246.66137695 271.72070312 C243.36711595 271.71222026 240.07460644 271.74093643 236.78051758 271.77270508 C234.66072643 271.77431818 232.54093224 271.77373749 230.42114258 271.77075195 C229.44993469 271.78198593 228.47872681 271.79321991 227.47808838 271.80479431 C205.71356356 271.5870275 188.85892437 254.53069253 174.09301758 240.2746582 C163.68334106 229.59576592 154.48646781 217.59222463 145.21411133 205.92700195 C142.36105791 202.35937162 139.47651084 198.81770208 136.59301758 195.2746582 C132.45076091 190.18385587 128.32806783 185.0790581 124.23754883 179.9465332 C121.99430842 177.1516763 119.73237122 174.37272195 117.46801758 171.5949707 C112.79307382 165.8595073 108.14771117 160.10620457 103.59301758 154.2746582 C98.07897004 147.21804406 92.43384194 140.27169758 86.7722168 133.33325195 C83.93784171 129.85848448 81.10881493 126.37937338 78.28051758 122.8996582 C77.73516357 122.22870117 77.18980957 121.55774414 76.62792969 120.86645508 C72.42355556 115.68986361 68.24925568 110.48998053 64.09301758 105.2746582 C62.76000491 103.60773506 61.42666547 101.94107317 60.09301758 100.2746582 C56.09301758 95.2746582 52.09301758 90.2746582 48.09301758 85.2746582 C47.76301758 146.6546582 47.43301758 208.0346582 47.09301758 271.2746582 C24.65301758 271.2746582 2.21301758 271.2746582 -20.90698242 271.2746582 C-21.01726841 239.08675988 -21.10956646 206.89904534 -21.16230907 174.71101484 C-21.16856239 170.9084985 -21.17503402 167.10598255 -21.18164062 163.3034668 C-21.18295218 162.54647375 -21.18426373 161.7894807 -21.18561503 161.00954847 C-21.20735487 148.76217401 -21.24676851 136.51491724 -21.2927464 124.26761253 C-21.3395507 111.69505362 -21.3672862 99.12255622 -21.3774249 86.54991376 C-21.38427586 78.79565777 -21.40589153 71.04173445 -21.44656476 63.28758089 C-21.47618932 57.3355899 -21.47924653 51.38376843 -21.47252083 45.43170166 C-21.47389458 42.9944695 -21.48381638 40.55722456 -21.5030098 38.1200676 C-21.5279733 34.78626145 -21.52187428 31.45386603 -21.508255 28.12002563 C-21.52281921 27.16085318 -21.53738342 26.20168073 -21.55238897 25.21344244 C-21.47083079 17.80175862 -19.45011149 11.24622179 -14.42886239 5.61780417 C-10.088582 1.78725891 -5.73792088 0.03188179 0 0 Z " fill="#010101" transform="translate(657.906982421875,238.725341796875)"/>
<path d="M0 0 C1.8243457 -0.04350586 1.8243457 -0.04350586 3.68554688 -0.08789062 C18.39764368 -0.19055153 30.17281938 5.17816751 40.8125 15.25 C54.36893135 29.03737161 63.25785256 47.54426483 70.3125 65.3125 C71.61702135 68.32555491 72.96583711 71.31809106 74.3125 74.3125 C74.95880397 75.77062482 75.60462917 77.22896193 76.25 78.6875 C77.77137621 82.1135913 79.31886985 85.52705908 80.875 88.9375 C82.7438906 93.03994279 84.54589174 97.16481105 86.3125 101.3125 C86.91616863 102.64605889 87.52038366 103.97937052 88.125 105.3125 C89.65821324 108.73453868 91.06297069 112.19390065 92.42871094 115.68603516 C94.93721839 122.09612724 97.71377556 128.21481134 100.87109375 134.33984375 C102.91414872 138.55329858 104.52555013 142.8979685 106.1640625 147.28125 C108.39028682 153.15727067 111.02572374 158.77851111 113.875 164.375 C115.68407346 167.94365859 117.16904658 171.48509228 118.49609375 175.25390625 C119.46025308 177.68506399 120.65314217 179.93808825 121.875 182.25 C124.26552068 186.89423445 125.4019213 191.18014733 126.3125 196.3125 C126.9725 196.3125 127.6325 196.3125 128.3125 196.3125 C130.76974786 201.8736399 132.91879995 207.52565563 135.03125 213.2265625 C136.24089906 216.14004651 137.68726275 218.6175913 139.3125 221.3125 C140.35489911 223.63721548 141.35412607 225.9541247 142.3125 228.3125 C142.58030273 228.96943848 142.84810547 229.62637695 143.12402344 230.30322266 C143.68756113 231.69036708 144.25012397 233.0779079 144.81176758 234.46582031 C147.40205706 240.85236065 150.05301501 247.13067865 153.26953125 253.234375 C154.43016762 255.54695383 155.3639328 257.90574323 156.3125 260.3125 C157.36361422 262.65640798 158.43332978 264.99094423 159.5078125 267.32421875 C160.3125 269.3125 160.3125 269.3125 160.3125 271.3125 C132.2625 271.3125 104.2125 271.3125 75.3125 271.3125 C69.74299327 260.17348655 69.74299327 260.17348655 68.1875 255.5 C67.2640148 252.73363061 66.39931696 250.44772537 64.8203125 247.98828125 C63.3125 245.3125 63.3125 245.3125 61.3125 237.3125 C30.6225 237.3125 -0.0675 237.3125 -31.6875 237.3125 C-30.86013381 232.34830285 -30.05940039 229.55161471 -27.9375 225.1875 C-25.8803333 220.87186867 -23.92520006 216.55406365 -22.125 212.125 C-20.66089019 208.55071287 -19.10691606 205.10682702 -17.3125 201.6875 C-14.43161812 196.10864938 -12.27828058 190.25977426 -10.09814453 184.38037109 C-9.81438965 183.62578613 -9.53063477 182.87120117 -9.23828125 182.09375 C-8.98731689 181.41376953 -8.73635254 180.73378906 -8.4777832 180.03320312 C-7.6875 178.3125 -7.6875 178.3125 -5.6875 176.3125 C-4.6975 174.0025 -3.7075 171.6925 -2.6875 169.3125 C7.8725 169.3125 18.4325 169.3125 29.3125 169.3125 C27.97018385 163.94323542 26.87056184 159.88748518 24.66796875 155.01171875 C24.15556641 153.86896484 23.64316406 152.72621094 23.11523438 151.54882812 C22.58220703 150.37771484 22.04917969 149.20660156 21.5 148 C20.97857422 146.84048828 20.45714844 145.68097656 19.91992188 144.48632812 C17.93184137 140.07085346 15.92830674 135.66255029 13.91870117 131.25683594 C11.63852728 126.25593682 9.39700376 121.24701304 7.25 116.1875 C5.22320066 111.42164109 3.15019058 106.68506662 0.9765625 101.984375 C0.3125 100.3125 0.3125 100.3125 0.3125 98.3125 C-0.3475 98.3125 -1.0075 98.3125 -1.6875 98.3125 C-1.94917969 99.32054687 -2.21085937 100.32859375 -2.48046875 101.3671875 C-3.5916475 105.25192303 -5.22272755 108.81802092 -7 112.4375 C-9.30049823 117.22846772 -11.40093275 122.0111205 -13.25 127 C-15.24579625 132.35505726 -17.61780383 137.39497491 -20.2578125 142.4609375 C-21.53225966 145.00286762 -22.67764546 147.56835703 -23.78125 150.18798828 C-24.9085159 152.83062509 -26.07721826 155.453629 -27.24609375 158.078125 C-27.71466797 159.13386719 -28.18324219 160.18960938 -28.66601562 161.27734375 C-29.63223292 163.45294949 -30.60095028 165.62744678 -31.57226562 167.80078125 C-34.20805997 173.75210841 -36.63255699 179.6977462 -38.71508789 185.86621094 C-39.7826369 188.55183512 -41.17224578 190.85594011 -42.6875 193.3125 C-43.71498739 195.6338604 -44.71289354 197.96844652 -45.6875 200.3125 C-46.23347958 201.55622965 -46.78302607 202.79839893 -47.3359375 204.0390625 C-50.09835704 210.26958863 -52.80294358 216.48723131 -55.1875 222.875 C-57.17903502 228.155487 -59.46207738 233.25555667 -61.87744141 238.35107422 C-64.33621475 243.53944619 -66.71922238 248.75844403 -69.0625 254 C-69.40837158 254.76658936 -69.75424316 255.53317871 -70.1105957 256.32299805 C-70.4324585 257.04527588 -70.75432129 257.76755371 -71.0859375 258.51171875 C-71.51398682 259.46824341 -71.51398682 259.46824341 -71.95068359 260.4440918 C-72.71326723 262.37784016 -73.22796869 264.28725183 -73.6875 266.3125 C-74.3475 266.3125 -75.0075 266.3125 -75.6875 266.3125 C-76.0175 267.9625 -76.3475 269.6125 -76.6875 271.3125 C-104.7375 271.3125 -132.7875 271.3125 -161.6875 271.3125 C-156.86931818 256.85795455 -156.86931818 256.85795455 -153.1875 250.875 C-150.42978826 246.16390911 -148.69435543 240.95391571 -146.75390625 235.86328125 C-144.94964879 231.21413651 -142.95041358 226.75872718 -140.6875 222.3125 C-138.02366967 217.07830707 -135.80605374 211.78404037 -133.6875 206.3125 C-130.98770576 199.58983354 -128.10993117 193.05562663 -124.8046875 186.609375 C-123.495299 183.9173455 -122.4955745 181.18102641 -121.49609375 178.36328125 C-120.55919461 175.98708778 -119.42492472 173.76771185 -118.25 171.5 C-115.99653566 167.10102172 -114.29050141 162.64721571 -112.65625 157.98828125 C-110.88896092 153.10685778 -108.93015294 148.31761624 -106.19140625 143.8984375 C-104.64907083 141.2464218 -103.66598679 138.71534414 -102.6875 135.8125 C-101.38872654 131.95947207 -99.77451097 128.79085162 -97.6875 125.3125 C-96.97742335 123.49553916 -96.31061955 121.661088 -95.6875 119.8125 C-94.39084777 115.96576505 -92.80305625 112.77072929 -90.6875 109.3125 C-90.16886631 108.05725614 -89.68598384 106.78628774 -89.25 105.5 C-88.26606057 102.7572051 -87.16732317 100.20406097 -85.8125 97.625 C-84.05755294 94.22768738 -82.70079649 90.77367082 -81.375 87.1875 C-79.10711879 81.14446885 -76.31417631 75.50540861 -73.3671875 69.76953125 C-71.80392226 66.55211326 -70.52656484 63.36170368 -69.3125 60 C-61.64203697 39.37777153 -47.62207848 14.19802064 -27.1171875 4.0390625 C-18.16390259 0.27066497 -9.61131951 0.07520594 0 0 Z " fill="#010101" transform="translate(1123.6875,238.6875)"/>
<path d="M0 0 C78.54 0 157.08 0 238 0 C238 22.44 238 44.88 238 68 C181.9 68 125.8 68 68 68 C68 112.55 68 157.1 68 203 C124.1 203 180.2 203 238 203 C238 225.44 238 247.88 238 271 C159.46 271 80.92 271 0 271 C0 181.57 0 92.14 0 0 Z " fill="#010101" transform="translate(380,239)"/>
<path d="M0 0 C22.11 0 44.22 0 67 0 C67 89.43 67 178.86 67 271 C44.89 271 22.78 271 0 271 C0 181.57 0 92.14 0 0 Z " fill="#000000" transform="translate(1304,239)"/>
<path d="M0 0 C44.88 0 89.76 0 136 0 C136 22.77 136 45.54 136 69 C91.12 69 46.24 69 0 69 C0 46.23 0 23.46 0 0 Z " fill="#050505" transform="translate(482,340)"/>
<path d="M0 0 C1.32 0.99 2.64 1.98 4 3 C3.67 3.99 3.34 4.98 3 6 C2.67 6 2.34 6 2 6 C1.67 65.73 1.34 125.46 1 187 C0.67 187 0.34 187 0 187 C0 125.29 0 63.58 0 0 Z " fill="#D0D0D0" transform="translate(705,323)"/>
<path d="M0 0 C0.66 0.66 1.32 1.32 2 2 C4.54427706 2.18785405 6.97873441 2.25190432 9.52319336 2.22705078 C10.29895218 2.22734283 11.074711 2.22763489 11.87397766 2.22793579 C14.44604565 2.22653919 17.01782615 2.21095892 19.58984375 2.1953125 C21.37341656 2.19158247 23.15699142 2.18873545 24.94056702 2.18673706 C29.64291003 2.17909098 34.34513002 2.15943973 39.04742432 2.1373291 C43.83042749 2.11692475 48.61345027 2.10773816 53.39648438 2.09765625 C61.80289644 2.07848901 70.20922977 2.04948773 78.61558533 2.01345825 C80.74371145 2.00499568 82.87185705 2 85 2 C84.67 2.66 84.34 3.32 84 4 C55.95 4 27.9 4 -1 4 C-0.67 2.68 -0.34 1.36 0 0 Z " fill="#171717" transform="translate(963,506)"/>
</svg>
